<?xml version="1.0" encoding="UTF-8"?>
<svg xmlns="http://www.w3.org/2000/svg" width="540" height="1048" viewBox="0 0 540 1048">
  <rect x="0" y="0" width="540" height="1048" fill="#1a2a1c" />
  <circle cx="30.00" cy="437.03" r="3.9" fill="#2f7fd6" />
  <circle cx="30.00" cy="454.35" r="3.9" fill="#2f7fd6" />
  <circle cx="30.00" cy="471.67" r="3.9" fill="#2f7fd6" />
  <circle cx="30.00" cy="488.99" r="3.9" fill="#2f7fd6" />
  <circle cx="45.00" cy="30.00" r="3.9" fill="#2f7fd6" />
  <circle cx="45.00" cy="47.32" r="3.9" fill="#2f7fd6" />
  <circle cx="45.00" cy="64.64" r="3.9" fill="#2f7fd6" />
  <circle cx="45.00" cy="81.96" r="3.9" fill="#2f7fd6" />
  <circle cx="45.00" cy="99.28" r="3.9" fill="#2f7fd6" />
  <circle cx="45.00" cy="116.60" r="3.9" fill="#2f7fd6" />
  <circle cx="45.00" cy="133.92" r="3.9" fill="#2f7fd6" />
  <circle cx="45.00" cy="151.24" r="3.9" fill="#2f7fd6" />
  <circle cx="45.00" cy="168.56" r="3.9" fill="#2f7fd6" />
  <circle cx="45.00" cy="411.05" r="3.9" fill="#2f7fd6" />
  <circle cx="45.00" cy="428.37" r="3.9" fill="#2f7fd6" />
  <circle cx="45.00" cy="497.65" r="3.9" fill="#2f7fd6" />
  <circle cx="45.00" cy="532.29" r="3.9" fill="#2f7fd6" />
  <circle cx="45.00" cy="549.62" r="3.9" fill="#2f7fd6" />
  <circle cx="45.00" cy="566.94" r="3.9" fill="#2f7fd6" />
  <circle cx="60.00" cy="194.54" r="3.9" fill="#2f7fd6" />
  <circle cx="60.00" cy="211.87" r="3.9" fill="#2f7fd6" />
  <circle cx="60.00" cy="385.07" r="3.9" fill="#2f7fd6" />
  <circle cx="60.00" cy="402.39" r="3.9" fill="#2f7fd6" />
  <circle cx="60.00" cy="506.31" r="3.9" fill="#2f7fd6" />
  <circle cx="60.00" cy="575.60" r="3.9" fill="#2f7fd6" />
  <circle cx="60.00" cy="592.92" r="3.9" fill="#2f7fd6" />
  <circle cx="75.00" cy="220.53" r="3.9" fill="#2f7fd6" />
  <circle cx="75.00" cy="376.41" r="3.9" fill="#2f7fd6" />
  <circle cx="75.00" cy="601.58" r="3.9" fill="#2f7fd6" />
  <circle cx="90.00" cy="229.19" r="3.9" fill="#2f7fd6" />
  <circle cx="90.00" cy="333.11" r="3.9" fill="#2f7fd6" />
  <circle cx="90.00" cy="350.43" r="3.9" fill="#2f7fd6" />
  <circle cx="90.00" cy="610.24" r="3.9" fill="#2f7fd6" />
  <circle cx="105.00" cy="237.85" r="3.9" fill="#2f7fd6" />
  <circle cx="105.00" cy="289.81" r="3.9" fill="#2f7fd6" />
  <circle cx="105.00" cy="307.13" r="3.9" fill="#2f7fd6" />
  <circle cx="105.00" cy="324.45" r="3.9" fill="#2f7fd6" />
  <circle cx="105.00" cy="618.90" r="3.9" fill="#2f7fd6" />
  <circle cx="105.00" cy="636.22" r="3.9" fill="#2f7fd6" />
  <circle cx="105.00" cy="653.54" r="3.9" fill="#2f7fd6" />
  <circle cx="105.00" cy="670.86" r="3.9" fill="#2f7fd6" />
  <circle cx="120.00" cy="246.51" r="3.9" fill="#2f7fd6" />
  <circle cx="120.00" cy="263.83" r="3.9" fill="#2f7fd6" />
  <circle cx="120.00" cy="281.15" r="3.9" fill="#2f7fd6" />
  <circle cx="120.00" cy="679.52" r="3.9" fill="#2f7fd6" />
  <circle cx="120.00" cy="696.84" r="3.9" fill="#2f7fd6" />
  <circle cx="135.00" cy="705.50" r="3.9" fill="#2f7fd6" />
  <circle cx="150.00" cy="263.83" r="3.9" fill="#2f7fd6" />
  <circle cx="150.00" cy="714.16" r="3.9" fill="#2f7fd6" />
  <circle cx="165.00" cy="722.82" r="3.9" fill="#2f7fd6" />
  <circle cx="180.00" cy="731.48" r="3.9" fill="#2f7fd6" />
  <circle cx="180.00" cy="748.80" r="3.9" fill="#2f7fd6" />
  <circle cx="195.00" cy="757.46" r="3.9" fill="#2f7fd6" />
  <circle cx="195.00" cy="774.78" r="3.9" fill="#2f7fd6" />
  <circle cx="195.00" cy="792.10" r="3.9" fill="#2f7fd6" />
  <circle cx="195.00" cy="809.42" r="3.9" fill="#2f7fd6" />
  <circle cx="195.00" cy="826.74" r="3.9" fill="#2f7fd6" />
  <circle cx="195.00" cy="844.06" r="3.9" fill="#2f7fd6" />
  <circle cx="195.00" cy="861.38" r="3.9" fill="#2f7fd6" />
  <circle cx="195.00" cy="878.70" r="3.9" fill="#2f7fd6" />
  <circle cx="195.00" cy="896.03" r="3.9" fill="#2f7fd6" />
  <circle cx="195.00" cy="913.35" r="3.9" fill="#2f7fd6" />
  <circle cx="195.00" cy="930.67" r="3.9" fill="#2f7fd6" />
  <circle cx="195.00" cy="947.99" r="3.9" fill="#2f7fd6" />
  <circle cx="195.00" cy="965.31" r="3.9" fill="#2f7fd6" />
  <circle cx="195.00" cy="982.63" r="3.9" fill="#2f7fd6" />
  <circle cx="195.00" cy="999.95" r="3.9" fill="#2f7fd6" />
  <circle cx="195.00" cy="1017.27" r="3.9" fill="#2f7fd6" />
  <circle cx="210.00" cy="696.84" r="3.9" fill="#2f7fd6" />
  <circle cx="210.00" cy="714.16" r="3.9" fill="#2f7fd6" />
  <circle cx="210.00" cy="731.48" r="3.9" fill="#2f7fd6" />
  <circle cx="495.00" cy="584.26" r="3.9" fill="#2f7fd6" />
  <circle cx="495.00" cy="601.58" r="3.9" fill="#2f7fd6" />
  <circle cx="510.00" cy="592.92" r="3.9" fill="#2f7fd6" />
  <circle cx="510.00" cy="610.24" r="3.9" fill="#2f7fd6" />
  <circle cx="90.00" cy="471.67" r="3.9" fill="#ecdbb4" />
  <circle cx="105.00" cy="514.97" r="3.9" fill="#ecdbb4" />
  <circle cx="120.00" cy="385.07" r="3.9" fill="#ecdbb4" />
  <circle cx="120.00" cy="471.67" r="3.9" fill="#ecdbb4" />
  <circle cx="120.00" cy="506.31" r="3.9" fill="#ecdbb4" />
  <circle cx="135.00" cy="393.73" r="3.9" fill="#ecdbb4" />
  <circle cx="135.00" cy="428.37" r="3.9" fill="#ecdbb4" />
  <circle cx="135.00" cy="445.69" r="3.9" fill="#ecdbb4" />
  <circle cx="135.00" cy="463.01" r="3.9" fill="#ecdbb4" />
  <circle cx="135.00" cy="480.33" r="3.9" fill="#ecdbb4" />
  <circle cx="135.00" cy="497.65" r="3.9" fill="#ecdbb4" />
  <circle cx="135.00" cy="514.97" r="3.9" fill="#ecdbb4" />
  <circle cx="150.00" cy="402.39" r="3.9" fill="#ecdbb4" />
  <circle cx="150.00" cy="419.71" r="3.9" fill="#ecdbb4" />
  <circle cx="150.00" cy="540.95" r="3.9" fill="#ecdbb4" />
  <circle cx="150.00" cy="558.28" r="3.9" fill="#ecdbb4" />
  <circle cx="150.00" cy="592.92" r="3.9" fill="#ecdbb4" />
  <circle cx="165.00" cy="376.41" r="3.9" fill="#ecdbb4" />
  <circle cx="165.00" cy="393.73" r="3.9" fill="#ecdbb4" />
  <circle cx="165.00" cy="480.33" r="3.9" fill="#ecdbb4" />
  <circle cx="165.00" cy="566.94" r="3.9" fill="#ecdbb4" />
  <circle cx="165.00" cy="584.26" r="3.9" fill="#ecdbb4" />
  <circle cx="180.00" cy="367.75" r="3.9" fill="#ecdbb4" />
  <circle cx="180.00" cy="592.92" r="3.9" fill="#ecdbb4" />
  <circle cx="195.00" cy="324.45" r="3.9" fill="#ecdbb4" />
  <circle cx="195.00" cy="359.09" r="3.9" fill="#ecdbb4" />
  <circle cx="195.00" cy="376.41" r="3.9" fill="#ecdbb4" />
  <circle cx="195.00" cy="584.26" r="3.9" fill="#ecdbb4" />
  <circle cx="195.00" cy="601.58" r="3.9" fill="#ecdbb4" />
  <circle cx="210.00" cy="350.43" r="3.9" fill="#ecdbb4" />
  <circle cx="210.00" cy="385.07" r="3.9" fill="#ecdbb4" />
  <circle cx="210.00" cy="558.28" r="3.9" fill="#ecdbb4" />
  <circle cx="210.00" cy="610.24" r="3.9" fill="#ecdbb4" />
  <circle cx="210.00" cy="627.56" r="3.9" fill="#ecdbb4" />
  <circle cx="210.00" cy="644.88" r="3.9" fill="#ecdbb4" />
  <circle cx="225.00" cy="341.77" r="3.9" fill="#ecdbb4" />
  <circle cx="225.00" cy="618.90" r="3.9" fill="#ecdbb4" />
  <circle cx="240.00" cy="333.11" r="3.9" fill="#ecdbb4" />
  <circle cx="240.00" cy="627.56" r="3.9" fill="#ecdbb4" />
  <circle cx="240.00" cy="662.20" r="3.9" fill="#ecdbb4" />
  <circle cx="255.00" cy="636.22" r="3.9" fill="#ecdbb4" />
  <circle cx="270.00" cy="333.11" r="3.9" fill="#ecdbb4" />
  <circle cx="285.00" cy="289.81" r="3.9" fill="#ecdbb4" />
  <circle cx="285.00" cy="307.13" r="3.9" fill="#ecdbb4" />
  <circle cx="285.00" cy="324.45" r="3.9" fill="#ecdbb4" />
  <circle cx="285.00" cy="341.77" r="3.9" fill="#ecdbb4" />
  <circle cx="285.00" cy="359.09" r="3.9" fill="#ecdbb4" />
  <circle cx="285.00" cy="601.58" r="3.9" fill="#ecdbb4" />
  <circle cx="285.00" cy="618.90" r="3.9" fill="#ecdbb4" />
  <circle cx="285.00" cy="636.22" r="3.9" fill="#ecdbb4" />
  <circle cx="300.00" cy="333.11" r="3.9" fill="#ecdbb4" />
  <circle cx="300.00" cy="627.56" r="3.9" fill="#ecdbb4" />
  <circle cx="315.00" cy="670.86" r="3.9" fill="#ecdbb4" />
  <circle cx="330.00" cy="333.11" r="3.9" fill="#ecdbb4" />
  <circle cx="330.00" cy="627.56" r="3.9" fill="#ecdbb4" />
  <circle cx="345.00" cy="341.77" r="3.9" fill="#ecdbb4" />
  <circle cx="345.00" cy="618.90" r="3.9" fill="#ecdbb4" />
  <circle cx="345.00" cy="636.22" r="3.9" fill="#ecdbb4" />
  <circle cx="345.00" cy="653.54" r="3.9" fill="#ecdbb4" />
  <circle cx="360.00" cy="333.11" r="3.9" fill="#ecdbb4" />
  <circle cx="360.00" cy="350.43" r="3.9" fill="#ecdbb4" />
  <circle cx="360.00" cy="385.07" r="3.9" fill="#ecdbb4" />
  <circle cx="360.00" cy="558.28" r="3.9" fill="#ecdbb4" />
  <circle cx="360.00" cy="575.60" r="3.9" fill="#ecdbb4" />
  <circle cx="360.00" cy="610.24" r="3.9" fill="#ecdbb4" />
  <circle cx="375.00" cy="359.09" r="3.9" fill="#ecdbb4" />
  <circle cx="375.00" cy="376.41" r="3.9" fill="#ecdbb4" />
  <circle cx="375.00" cy="584.26" r="3.9" fill="#ecdbb4" />
  <circle cx="375.00" cy="601.58" r="3.9" fill="#ecdbb4" />
  <circle cx="390.00" cy="350.43" r="3.9" fill="#ecdbb4" />
  <circle cx="390.00" cy="367.75" r="3.9" fill="#ecdbb4" />
  <circle cx="390.00" cy="592.92" r="3.9" fill="#ecdbb4" />
  <circle cx="405.00" cy="341.77" r="3.9" fill="#ecdbb4" />
  <circle cx="405.00" cy="393.73" r="3.9" fill="#ecdbb4" />
  <circle cx="405.00" cy="480.33" r="3.9" fill="#ecdbb4" />
  <circle cx="405.00" cy="566.94" r="3.9" fill="#ecdbb4" />
  <circle cx="405.00" cy="584.26" r="3.9" fill="#ecdbb4" />
  <circle cx="420.00" cy="402.39" r="3.9" fill="#ecdbb4" />
  <circle cx="420.00" cy="419.71" r="3.9" fill="#ecdbb4" />
  <circle cx="420.00" cy="540.95" r="3.9" fill="#ecdbb4" />
  <circle cx="420.00" cy="558.28" r="3.9" fill="#ecdbb4" />
  <circle cx="420.00" cy="610.24" r="3.9" fill="#ecdbb4" />
  <circle cx="435.00" cy="393.73" r="3.9" fill="#ecdbb4" />
  <circle cx="435.00" cy="445.69" r="3.9" fill="#ecdbb4" />
  <circle cx="435.00" cy="463.01" r="3.9" fill="#ecdbb4" />
  <circle cx="435.00" cy="480.33" r="3.9" fill="#ecdbb4" />
  <circle cx="435.00" cy="497.65" r="3.9" fill="#ecdbb4" />
  <circle cx="435.00" cy="514.97" r="3.9" fill="#ecdbb4" />
  <circle cx="450.00" cy="385.07" r="3.9" fill="#ecdbb4" />
  <circle cx="450.00" cy="506.31" r="3.9" fill="#ecdbb4" />
  <circle cx="465.00" cy="480.33" r="3.9" fill="#ecdbb4" />
  <circle cx="465.00" cy="514.97" r="3.9" fill="#ecdbb4" />
  <circle cx="180.00" cy="454.35" r="3.9" fill="#9caeb7" />
  <circle cx="180.00" cy="471.67" r="3.9" fill="#9caeb7" />
  <circle cx="180.00" cy="488.99" r="3.9" fill="#9caeb7" />
  <circle cx="195.00" cy="428.37" r="3.9" fill="#9caeb7" />
  <circle cx="195.00" cy="514.97" r="3.9" fill="#9caeb7" />
  <circle cx="195.00" cy="532.29" r="3.9" fill="#9caeb7" />
  <circle cx="210.00" cy="402.39" r="3.9" fill="#9caeb7" />
  <circle cx="225.00" cy="393.73" r="3.9" fill="#9caeb7" />
  <circle cx="225.00" cy="566.94" r="3.9" fill="#9caeb7" />
  <circle cx="240.00" cy="385.07" r="3.9" fill="#9caeb7" />
  <circle cx="240.00" cy="506.31" r="3.9" fill="#9caeb7" />
  <circle cx="240.00" cy="575.60" r="3.9" fill="#9caeb7" />
  <circle cx="255.00" cy="376.41" r="3.9" fill="#9caeb7" />
  <circle cx="255.00" cy="584.26" r="3.9" fill="#9caeb7" />
  <circle cx="270.00" cy="385.07" r="3.9" fill="#9caeb7" />
  <circle cx="270.00" cy="419.71" r="3.9" fill="#9caeb7" />
  <circle cx="285.00" cy="376.41" r="3.9" fill="#9caeb7" />
  <circle cx="285.00" cy="584.26" r="3.9" fill="#9caeb7" />
  <circle cx="300.00" cy="419.71" r="3.9" fill="#9caeb7" />
  <circle cx="315.00" cy="376.41" r="3.9" fill="#9caeb7" />
  <circle cx="315.00" cy="463.01" r="3.9" fill="#9caeb7" />
  <circle cx="315.00" cy="497.65" r="3.9" fill="#9caeb7" />
  <circle cx="330.00" cy="385.07" r="3.9" fill="#9caeb7" />
  <circle cx="330.00" cy="506.31" r="3.9" fill="#9caeb7" />
  <circle cx="330.00" cy="575.60" r="3.9" fill="#9caeb7" />
  <circle cx="345.00" cy="463.01" r="3.9" fill="#9caeb7" />
  <circle cx="345.00" cy="497.65" r="3.9" fill="#9caeb7" />
  <circle cx="345.00" cy="566.94" r="3.9" fill="#9caeb7" />
  <circle cx="360.00" cy="402.39" r="3.9" fill="#9caeb7" />
  <circle cx="360.00" cy="419.71" r="3.9" fill="#9caeb7" />
  <circle cx="360.00" cy="540.95" r="3.9" fill="#9caeb7" />
  <circle cx="375.00" cy="428.37" r="3.9" fill="#9caeb7" />
  <circle cx="375.00" cy="445.69" r="3.9" fill="#9caeb7" />
  <circle cx="375.00" cy="514.97" r="3.9" fill="#9caeb7" />
  <circle cx="375.00" cy="532.29" r="3.9" fill="#9caeb7" />
  <circle cx="390.00" cy="454.35" r="3.9" fill="#9caeb7" />
  <circle cx="390.00" cy="471.67" r="3.9" fill="#9caeb7" />
  <circle cx="390.00" cy="488.99" r="3.9" fill="#9caeb7" />
  <circle cx="390.00" cy="506.31" r="3.9" fill="#9caeb7" />
  <circle cx="75.00" cy="411.05" r="3.9" fill="#a06f48" />
  <circle cx="75.00" cy="428.37" r="3.9" fill="#a06f48" />
  <circle cx="75.00" cy="549.62" r="3.9" fill="#a06f48" />
  <circle cx="90.00" cy="402.39" r="3.9" fill="#a06f48" />
  <circle cx="90.00" cy="419.71" r="3.9" fill="#a06f48" />
  <circle cx="90.00" cy="437.03" r="3.9" fill="#a06f48" />
  <circle cx="90.00" cy="540.95" r="3.9" fill="#a06f48" />
  <circle cx="90.00" cy="558.28" r="3.9" fill="#a06f48" />
  <circle cx="90.00" cy="575.60" r="3.9" fill="#a06f48" />
  <circle cx="105.00" cy="411.05" r="3.9" fill="#a06f48" />
  <circle cx="105.00" cy="428.37" r="3.9" fill="#a06f48" />
  <circle cx="105.00" cy="549.62" r="3.9" fill="#a06f48" />
  <circle cx="105.00" cy="566.94" r="3.9" fill="#a06f48" />
  <circle cx="120.00" cy="558.28" r="3.9" fill="#a06f48" />
  <circle cx="135.00" cy="341.77" r="3.9" fill="#a06f48" />
  <circle cx="135.00" cy="359.09" r="3.9" fill="#a06f48" />
  <circle cx="150.00" cy="333.11" r="3.9" fill="#a06f48" />
  <circle cx="150.00" cy="350.43" r="3.9" fill="#a06f48" />
  <circle cx="150.00" cy="644.88" r="3.9" fill="#a06f48" />
  <circle cx="165.00" cy="341.77" r="3.9" fill="#a06f48" />
  <circle cx="165.00" cy="618.90" r="3.9" fill="#a06f48" />
  <circle cx="165.00" cy="636.22" r="3.9" fill="#a06f48" />
  <circle cx="165.00" cy="653.54" r="3.9" fill="#a06f48" />
  <circle cx="180.00" cy="298.47" r="3.9" fill="#a06f48" />
  <circle cx="180.00" cy="627.56" r="3.9" fill="#a06f48" />
  <circle cx="180.00" cy="644.88" r="3.9" fill="#a06f48" />
  <circle cx="210.00" cy="281.15" r="3.9" fill="#a06f48" />
  <circle cx="210.00" cy="298.47" r="3.9" fill="#a06f48" />
  <circle cx="225.00" cy="272.49" r="3.9" fill="#a06f48" />
  <circle cx="225.00" cy="307.13" r="3.9" fill="#a06f48" />
  <circle cx="240.00" cy="281.15" r="3.9" fill="#a06f48" />
  <circle cx="240.00" cy="298.47" r="3.9" fill="#a06f48" />
  <circle cx="300.00" cy="662.20" r="3.9" fill="#a06f48" />
  <circle cx="300.00" cy="679.52" r="3.9" fill="#a06f48" />
  <circle cx="315.00" cy="653.54" r="3.9" fill="#a06f48" />
  <circle cx="315.00" cy="688.18" r="3.9" fill="#a06f48" />
  <circle cx="330.00" cy="281.15" r="3.9" fill="#a06f48" />
  <circle cx="330.00" cy="298.47" r="3.9" fill="#a06f48" />
  <circle cx="330.00" cy="662.20" r="3.9" fill="#a06f48" />
  <circle cx="330.00" cy="679.52" r="3.9" fill="#a06f48" />
  <circle cx="345.00" cy="272.49" r="3.9" fill="#a06f48" />
  <circle cx="345.00" cy="307.13" r="3.9" fill="#a06f48" />
  <circle cx="360.00" cy="281.15" r="3.9" fill="#a06f48" />
  <circle cx="360.00" cy="298.47" r="3.9" fill="#a06f48" />
  <circle cx="375.00" cy="307.13" r="3.9" fill="#a06f48" />
  <circle cx="390.00" cy="627.56" r="3.9" fill="#a06f48" />
  <circle cx="390.00" cy="644.88" r="3.9" fill="#a06f48" />
  <circle cx="405.00" cy="618.90" r="3.9" fill="#a06f48" />
  <circle cx="405.00" cy="636.22" r="3.9" fill="#a06f48" />
  <circle cx="405.00" cy="653.54" r="3.9" fill="#a06f48" />
  <circle cx="420.00" cy="333.11" r="3.9" fill="#a06f48" />
  <circle cx="420.00" cy="350.43" r="3.9" fill="#a06f48" />
  <circle cx="420.00" cy="367.75" r="3.9" fill="#a06f48" />
  <circle cx="420.00" cy="627.56" r="3.9" fill="#a06f48" />
  <circle cx="420.00" cy="644.88" r="3.9" fill="#a06f48" />
  <circle cx="435.00" cy="341.77" r="3.9" fill="#a06f48" />
  <circle cx="435.00" cy="359.09" r="3.9" fill="#a06f48" />
  <circle cx="450.00" cy="350.43" r="3.9" fill="#a06f48" />
  <circle cx="450.00" cy="558.28" r="3.9" fill="#a06f48" />
  <circle cx="450.00" cy="575.60" r="3.9" fill="#a06f48" />
  <circle cx="465.00" cy="428.37" r="3.9" fill="#a06f48" />
  <circle cx="465.00" cy="445.69" r="3.9" fill="#a06f48" />
  <circle cx="465.00" cy="549.62" r="3.9" fill="#a06f48" />
  <circle cx="465.00" cy="566.94" r="3.9" fill="#a06f48" />
  <circle cx="465.00" cy="584.26" r="3.9" fill="#a06f48" />
  <circle cx="480.00" cy="419.71" r="3.9" fill="#a06f48" />
  <circle cx="480.00" cy="437.03" r="3.9" fill="#a06f48" />
  <circle cx="480.00" cy="454.35" r="3.9" fill="#a06f48" />
  <circle cx="480.00" cy="471.67" r="3.9" fill="#a06f48" />
  <circle cx="480.00" cy="558.28" r="3.9" fill="#a06f48" />
  <circle cx="480.00" cy="575.60" r="3.9" fill="#a06f48" />
  <circle cx="495.00" cy="428.37" r="3.9" fill="#a06f48" />
  <circle cx="75.00" cy="463.01" r="3.9" fill="#ef8d2e" />
  <circle cx="225.00" cy="289.81" r="3.9" fill="#ef8d2e" />
  <circle cx="240.00" cy="679.52" r="3.9" fill="#ef8d2e" />
  <circle cx="345.00" cy="289.81" r="3.9" fill="#ef8d2e" />
  <circle cx="435.00" cy="618.90" r="3.9" fill="#ef8d2e" />
</svg>